<mxfile host="65bd71144e">
    <diagram id="AtMXo_AA94An8IUpxGle" name="Page-1">
        <mxGraphModel dx="1113" dy="758" grid="1" gridSize="10" guides="1" tooltips="1" connect="1" arrows="1" fold="1" page="1" pageScale="1" pageWidth="850" pageHeight="1100" math="0" shadow="0">
            <root>
                <mxCell id="0"/>
                <mxCell id="1" parent="0"/>
                <mxCell id="0DWIBbG_RWGKzucQFfgm-1" value="" style="rounded=0;whiteSpace=wrap;html=1;fillColor=#FFFFFF;" parent="1" vertex="1">
                    <mxGeometry x="55" y="100" width="745" height="690" as="geometry"/>
                </mxCell>
                <mxCell id="0DWIBbG_RWGKzucQFfgm-35" value="Go Job Executor" style="rounded=0;whiteSpace=wrap;html=1;fontColor=#000000;fillColor=none;labelPosition=center;verticalLabelPosition=top;align=left;verticalAlign=bottom;fontSize=14;strokeColor=#000000;" parent="1" vertex="1">
                    <mxGeometry x="525" y="400" width="245" height="180" as="geometry"/>
                </mxCell>
                <mxCell id="0DWIBbG_RWGKzucQFfgm-34" value="Node.js Backend" style="rounded=0;whiteSpace=wrap;html=1;fontColor=#000000;fillColor=none;labelPosition=center;verticalLabelPosition=top;align=left;verticalAlign=bottom;fontSize=14;strokeColor=#000000;" parent="1" vertex="1">
                    <mxGeometry x="85" y="400" width="245" height="180" as="geometry"/>
                </mxCell>
                <mxCell id="0DWIBbG_RWGKzucQFfgm-27" value="React.js UI&lt;br style=&quot;font-size: 14px;&quot;&gt;" style="rounded=0;whiteSpace=wrap;html=1;fontColor=#000000;fillColor=none;labelPosition=center;verticalLabelPosition=top;align=left;verticalAlign=bottom;fontSize=14;strokeColor=#000000;" parent="1" vertex="1">
                    <mxGeometry x="305" y="190" width="245" height="180" as="geometry"/>
                </mxCell>
                <mxCell id="0DWIBbG_RWGKzucQFfgm-14" style="edgeStyle=orthogonalEdgeStyle;rounded=0;orthogonalLoop=1;jettySize=auto;html=1;strokeWidth=2;strokeColor=#000000;exitX=0.5;exitY=1;exitDx=0;exitDy=0;" parent="1" source="0DWIBbG_RWGKzucQFfgm-10" target="0DWIBbG_RWGKzucQFfgm-13" edge="1">
                    <mxGeometry relative="1" as="geometry"/>
                </mxCell>
                <mxCell id="0DWIBbG_RWGKzucQFfgm-5" value="Ingress" style="rounded=0;whiteSpace=wrap;html=1;fillColor=#326CE5;fontColor=#FFFFFF;fontStyle=0;fontSize=14;" parent="1" vertex="1">
                    <mxGeometry x="67.5" y="110" width="720" height="40" as="geometry"/>
                </mxCell>
                <mxCell id="0DWIBbG_RWGKzucQFfgm-7" style="edgeStyle=orthogonalEdgeStyle;rounded=0;orthogonalLoop=1;jettySize=auto;html=1;exitX=0.5;exitY=1;exitDx=0;exitDy=0;" parent="1" source="0DWIBbG_RWGKzucQFfgm-5" target="0DWIBbG_RWGKzucQFfgm-5" edge="1">
                    <mxGeometry relative="1" as="geometry"/>
                </mxCell>
                <mxCell id="0DWIBbG_RWGKzucQFfgm-10" value="Service" style="rounded=0;whiteSpace=wrap;html=1;fillColor=#326CE5;fontColor=#FFFFFF;fontSize=14;" parent="1" vertex="1">
                    <mxGeometry x="315" y="200" width="225" height="40" as="geometry"/>
                </mxCell>
                <mxCell id="0DWIBbG_RWGKzucQFfgm-11" value="" style="endArrow=classic;html=1;rounded=0;entryX=0.5;entryY=0;entryDx=0;entryDy=0;strokeWidth=2;strokeColor=#000000;" parent="1" source="0DWIBbG_RWGKzucQFfgm-5" target="0DWIBbG_RWGKzucQFfgm-10" edge="1">
                    <mxGeometry width="50" height="50" relative="1" as="geometry">
                        <mxPoint x="220" y="290" as="sourcePoint"/>
                        <mxPoint x="270" y="240" as="targetPoint"/>
                        <Array as="points"/>
                    </mxGeometry>
                </mxCell>
                <mxCell id="0DWIBbG_RWGKzucQFfgm-13" value="&lt;div style=&quot;font-size: 14px;&quot;&gt;Deployment&lt;/div&gt;" style="rounded=0;whiteSpace=wrap;html=1;dashed=1;labelPosition=center;verticalLabelPosition=top;align=left;verticalAlign=bottom;spacing=2;fontSize=14;fontColor=#000000;fillColor=#FFFFFF;strokeColor=#000000;" parent="1" vertex="1">
                    <mxGeometry x="315" y="290" width="225" height="70" as="geometry"/>
                </mxCell>
                <mxCell id="0DWIBbG_RWGKzucQFfgm-15" value="Pod" style="whiteSpace=wrap;html=1;aspect=fixed;fillColor=#61DBFB;strokeColor=#6c8ebf;fontSize=14;" parent="1" vertex="1">
                    <mxGeometry x="332" y="300" width="50" height="50" as="geometry"/>
                </mxCell>
                <mxCell id="0DWIBbG_RWGKzucQFfgm-16" value="Pod" style="whiteSpace=wrap;html=1;aspect=fixed;fillColor=#61DBFB;strokeColor=#6c8ebf;fontSize=14;" parent="1" vertex="1">
                    <mxGeometry x="402.5" y="300" width="50" height="50" as="geometry"/>
                </mxCell>
                <mxCell id="0DWIBbG_RWGKzucQFfgm-17" value="Pod" style="whiteSpace=wrap;html=1;aspect=fixed;fillColor=#61DBFB;strokeColor=#6c8ebf;fontSize=14;" parent="1" vertex="1">
                    <mxGeometry x="477" y="300" width="50" height="50" as="geometry"/>
                </mxCell>
                <mxCell id="0DWIBbG_RWGKzucQFfgm-18" style="edgeStyle=orthogonalEdgeStyle;rounded=0;orthogonalLoop=1;jettySize=auto;html=1;strokeWidth=2;exitX=0.5;exitY=1;exitDx=0;exitDy=0;entryX=1;entryY=0.5;entryDx=0;entryDy=0;strokeColor=#000000;" parent="1" source="0DWIBbG_RWGKzucQFfgm-13" target="0DWIBbG_RWGKzucQFfgm-19" edge="1">
                    <mxGeometry relative="1" as="geometry">
                        <mxPoint x="182" y="360" as="sourcePoint"/>
                        <mxPoint x="200" y="620" as="targetPoint"/>
                        <Array as="points">
                            <mxPoint x="426" y="430"/>
                        </Array>
                    </mxGeometry>
                </mxCell>
                <mxCell id="0DWIBbG_RWGKzucQFfgm-19" value="Service" style="rounded=0;whiteSpace=wrap;html=1;fillColor=#326CE5;fontColor=#FFFFFF;fontSize=14;" parent="1" vertex="1">
                    <mxGeometry x="95" y="410" width="225" height="40" as="geometry"/>
                </mxCell>
                <mxCell id="0DWIBbG_RWGKzucQFfgm-20" value="&lt;div style=&quot;font-size: 14px;&quot;&gt;Deployment&lt;/div&gt;" style="rounded=0;whiteSpace=wrap;html=1;dashed=1;labelPosition=center;verticalLabelPosition=top;align=left;verticalAlign=bottom;spacing=2;fontSize=14;fillColor=#FFFFFF;fontColor=#000000;strokeColor=#000000;" parent="1" vertex="1">
                    <mxGeometry x="95" y="500" width="225" height="70" as="geometry"/>
                </mxCell>
                <mxCell id="0DWIBbG_RWGKzucQFfgm-21" value="Pod" style="whiteSpace=wrap;html=1;aspect=fixed;fillColor=#68A063;strokeColor=#82b366;fontColor=#FFFFFF;fontSize=14;" parent="1" vertex="1">
                    <mxGeometry x="112" y="510" width="50" height="50" as="geometry"/>
                </mxCell>
                <mxCell id="0DWIBbG_RWGKzucQFfgm-22" value="Pod" style="whiteSpace=wrap;html=1;aspect=fixed;fillColor=#68A063;strokeColor=#82b366;fontColor=#FFFFFF;fontSize=14;" parent="1" vertex="1">
                    <mxGeometry x="182.5" y="510" width="50" height="50" as="geometry"/>
                </mxCell>
                <mxCell id="0DWIBbG_RWGKzucQFfgm-23" value="Pod" style="whiteSpace=wrap;html=1;aspect=fixed;fillColor=#68A063;strokeColor=#82b366;fontColor=#FFFFFF;fontSize=14;" parent="1" vertex="1">
                    <mxGeometry x="257" y="510" width="50" height="50" as="geometry"/>
                </mxCell>
                <mxCell id="0DWIBbG_RWGKzucQFfgm-26" style="edgeStyle=orthogonalEdgeStyle;rounded=0;orthogonalLoop=1;jettySize=auto;html=1;strokeWidth=2;exitX=0.5;exitY=1;exitDx=0;exitDy=0;strokeColor=#000000;" parent="1" source="0DWIBbG_RWGKzucQFfgm-19" edge="1">
                    <mxGeometry relative="1" as="geometry">
                        <mxPoint x="197.5" y="465" as="sourcePoint"/>
                        <mxPoint x="208" y="500" as="targetPoint"/>
                    </mxGeometry>
                </mxCell>
                <mxCell id="0DWIBbG_RWGKzucQFfgm-28" value="Service" style="rounded=0;whiteSpace=wrap;html=1;fillColor=#326CE5;fontColor=#FFFFFF;fontSize=14;" parent="1" vertex="1">
                    <mxGeometry x="535" y="410" width="225" height="40" as="geometry"/>
                </mxCell>
                <mxCell id="0DWIBbG_RWGKzucQFfgm-29" value="&lt;div style=&quot;font-size: 14px;&quot;&gt;Deployment&lt;/div&gt;" style="rounded=0;whiteSpace=wrap;html=1;dashed=1;labelPosition=center;verticalLabelPosition=top;align=left;verticalAlign=bottom;spacing=2;fontSize=14;fillColor=#FFFFFF;fontColor=#000000;strokeColor=#000000;" parent="1" vertex="1">
                    <mxGeometry x="535" y="500" width="225" height="70" as="geometry"/>
                </mxCell>
                <mxCell id="0DWIBbG_RWGKzucQFfgm-30" value="Pod" style="whiteSpace=wrap;html=1;aspect=fixed;fillColor=#69D7E2;strokeColor=#82b366;fontColor=#000000;fontSize=14;" parent="1" vertex="1">
                    <mxGeometry x="552" y="510" width="50" height="50" as="geometry"/>
                </mxCell>
                <mxCell id="0DWIBbG_RWGKzucQFfgm-31" value="Pod" style="whiteSpace=wrap;html=1;aspect=fixed;fillColor=#69D7E2;strokeColor=#82b366;fontColor=#000000;fontSize=14;" parent="1" vertex="1">
                    <mxGeometry x="622.5" y="510" width="50" height="50" as="geometry"/>
                </mxCell>
                <mxCell id="0DWIBbG_RWGKzucQFfgm-32" value="Pod" style="whiteSpace=wrap;html=1;aspect=fixed;fillColor=#69D7E2;strokeColor=#82b366;fontColor=#000000;fontSize=14;" parent="1" vertex="1">
                    <mxGeometry x="697" y="510" width="50" height="50" as="geometry"/>
                </mxCell>
                <mxCell id="0DWIBbG_RWGKzucQFfgm-33" style="edgeStyle=orthogonalEdgeStyle;rounded=0;orthogonalLoop=1;jettySize=auto;html=1;strokeWidth=2;exitX=0.5;exitY=1;exitDx=0;exitDy=0;strokeColor=#000000;" parent="1" source="0DWIBbG_RWGKzucQFfgm-28" edge="1">
                    <mxGeometry relative="1" as="geometry">
                        <mxPoint x="637.5" y="465" as="sourcePoint"/>
                        <mxPoint x="648" y="500" as="targetPoint"/>
                    </mxGeometry>
                </mxCell>
                <mxCell id="0DWIBbG_RWGKzucQFfgm-36" value="PostgreSQL" style="strokeWidth=2;html=1;shape=mxgraph.flowchart.database;whiteSpace=wrap;fontColor=#FFFFFF;fillColor=#30628A;fontSize=14;" parent="1" vertex="1">
                    <mxGeometry x="377" y="660" width="100" height="100" as="geometry"/>
                </mxCell>
                <mxCell id="0DWIBbG_RWGKzucQFfgm-37" style="edgeStyle=orthogonalEdgeStyle;rounded=0;orthogonalLoop=1;jettySize=auto;html=1;strokeWidth=2;exitX=1;exitY=0.5;exitDx=0;exitDy=0;entryX=0;entryY=0.5;entryDx=0;entryDy=0;strokeColor=#000000;" parent="1" source="0DWIBbG_RWGKzucQFfgm-23" target="0DWIBbG_RWGKzucQFfgm-28" edge="1">
                    <mxGeometry relative="1" as="geometry">
                        <mxPoint x="420.25" y="540" as="sourcePoint"/>
                        <mxPoint x="289.75" y="610" as="targetPoint"/>
                        <Array as="points">
                            <mxPoint x="460" y="535"/>
                            <mxPoint x="460" y="430"/>
                        </Array>
                    </mxGeometry>
                </mxCell>
                <mxCell id="0DWIBbG_RWGKzucQFfgm-38" style="edgeStyle=orthogonalEdgeStyle;rounded=0;orthogonalLoop=1;jettySize=auto;html=1;strokeWidth=2;exitX=0.5;exitY=1;exitDx=0;exitDy=0;entryX=0;entryY=0.5;entryDx=0;entryDy=0;entryPerimeter=0;strokeColor=#000000;" parent="1" source="0DWIBbG_RWGKzucQFfgm-20" target="0DWIBbG_RWGKzucQFfgm-36" edge="1">
                    <mxGeometry relative="1" as="geometry">
                        <mxPoint x="118" y="715" as="sourcePoint"/>
                        <mxPoint x="396" y="610" as="targetPoint"/>
                        <Array as="points">
                            <mxPoint x="208" y="710"/>
                        </Array>
                    </mxGeometry>
                </mxCell>
                <mxCell id="0DWIBbG_RWGKzucQFfgm-39" style="edgeStyle=orthogonalEdgeStyle;rounded=0;orthogonalLoop=1;jettySize=auto;html=1;strokeWidth=2;exitX=0.5;exitY=1;exitDx=0;exitDy=0;entryX=1;entryY=0.5;entryDx=0;entryDy=0;entryPerimeter=0;strokeColor=#000000;" parent="1" source="0DWIBbG_RWGKzucQFfgm-29" target="0DWIBbG_RWGKzucQFfgm-36" edge="1">
                    <mxGeometry relative="1" as="geometry">
                        <mxPoint x="637" y="600" as="sourcePoint"/>
                        <mxPoint x="807" y="740" as="targetPoint"/>
                        <Array as="points">
                            <mxPoint x="648" y="710"/>
                        </Array>
                    </mxGeometry>
                </mxCell>
            </root>
        </mxGraphModel>
    </diagram>
</mxfile>